<svg xmlns="http://www.w3.org/2000/svg" viewBox="0 0 480 300" width="480" height="300" role="img" aria-label="Five agents arranged around a house, each handling one task">
<defs><pattern id="g5" width="24" height="24" patternUnits="userSpaceOnUse"><path d="M24 0H0v24" fill="none" stroke="#141210" stroke-opacity=".07"/></pattern>
<marker id="a5" viewBox="0 0 10 10" refX="9" refY="5" markerWidth="6" markerHeight="6" orient="auto"><path d="M0 0l10 5-10 5z" fill="#141210"/></marker></defs>
<rect width="480" height="300" fill="#EBE1CB"/><rect width="480" height="300" fill="url(#g5)"/>
<g fill="none" stroke="#141210" stroke-width="2" stroke-linecap="round" stroke-linejoin="round">

<path d="M240 96l64 48v88h-128v-88z" stroke-width="2.4"/><path d="M216 232v-46h48v46"/>
<path d="M204 118V92h22v10" stroke-width="1.8"/>
<circle cx="76" cy="82" r="26" stroke="#C4552D" stroke-width="2.2"/><circle cx="76" cy="82" r="6" fill="#C4552D" stroke="none"/>
<circle cx="404" cy="82" r="26" stroke="#C4552D" stroke-width="2.2"/><circle cx="404" cy="82" r="6" fill="#C4552D" stroke="none"/>
<circle cx="54" cy="196" r="26" stroke="#C4552D" stroke-width="2.2"/><circle cx="54" cy="196" r="6" fill="#C4552D" stroke="none"/>
<circle cx="426" cy="196" r="26" stroke="#C4552D" stroke-width="2.2"/><circle cx="426" cy="196" r="6" fill="#C4552D" stroke="none"/>
<circle cx="240" cy="42" r="26" stroke="#C4552D" stroke-width="2.2"/><circle cx="240" cy="42" r="6" fill="#C4552D" stroke="none"/>
<path d="M100 94l72 40M380 94l-72 40M80 190l92-24M400 190l-92-24M240 68v24" stroke-width="1.3" stroke-dasharray="5 5"/>
</g></svg>
